<?xml version="1.0" encoding="UTF-8"?>
<svg width="410.5" height="441.5" enable-background="new 0 0 82.3 88.4" version="1.1" viewBox="0 0 410.5 441.5" xml:space="preserve" xmlns="http://www.w3.org/2000/svg" xmlns:cc="http://creativecommons.org/ns#" xmlns:dc="http://purl.org/dc/elements/1.1/" xmlns:rdf="http://www.w3.org/1999/02/22-rdf-syntax-ns#"><metadata><rdf:RDF><cc:Work rdf:about=""><dc:format>image/svg+xml</dc:format><dc:type rdf:resource="http://purl.org/dc/dcmitype/StillImage"/><dc:title/></cc:Work></rdf:RDF></metadata><g transform="scale(5)" clip-rule="evenodd" fill-rule="evenodd"><path d="m48.1 85.2v3.1h-14.7v-3.1c2.1 0 3.2 0 3.4-2.7v-17h7.8v16.9c0.1 2.8 1.3 2.7 3.5 2.8" fill="#e51c3e"/><path d="m66.7 41.9-10.8-8c-11.4-9.4-19.8-8.5-26.5-1.8-15.2-2.9-19.8 2.6-17.2 14 0.5-6.5 2.4-11 7.6-10.9 2.7 0 5.4 0.7 8 0.9 1.3 0.2 2.6 0.3 3.9 0.1 3.8-6 9.9-7.5 19.2-2 0.1 0 0.2 0.1 0.2 0.1zm-19.5-4.1c-2.9-2.7-6.4-4.2-9.7-3.8-2 3.8 2.1 5.8 5 3.8 0.7-0.8 2.3-0.8 4.7 0m-31.7 9.4c10.4-5.3 24.7 0.1 29.1 15.7h-7.8c-1-13.2-8.1-17.5-21.3-15.7m65.2 12.8-2.9 0.8-1.5-1.2c-0.5-0.4-1-0.7-1.6-1s-1.1-0.6-1.7-0.8-1.2-0.4-1.9-0.6c-0.7-0.1-1.4-0.3-2.1-0.3l-1.5-0.1-1.8 0.1-0.6 0.1-0.8 0.2-0.7 0.2-0.6 0.2-0.6 0.3-1 0.6-0.8 0.8-0.6 0.8-0.4 1-0.1 0.5c0 0.3 0 0.6 0.1 1l0.3 0.6 0.5 0.6 0.7 0.6 0.9 0.5 1.1 0.5 1.4 0.4 0.8 0.2c1.5 0.3 3.1 0.6 4.6 1 0.8 0.2 1.6 0.5 2.5 0.7 1.2 0.4 2.4 0.8 3.5 1.4l1.8 0.9 1 0.7c0.5 0.4 0.9 0.7 1.3 1.1l0.7 0.8 0.6 0.9 0.4 1 0.3 1 0.1 1.1-0.1 1.8v1.2l-0.3 1.2-0.4 1.1-0.6 1-0.7 1-0.8 0.9-0.9 0.8-1.1 0.7-1.2 0.6-1.3 0.5-1.4 0.4-1.4 0.2-1.6 0.2-1.7 0.1h-15.5v-12.2h3.4v2.8l0.2 1.2 0.4 1 0.6 0.8 0.8 0.8 0.5 0.3 1.2 0.6 1.4 0.4 1.7 0.3 0.9 0.1h2.7l2.4-0.2 1.1-0.1 1-0.2 0.9-0.2 1.6-0.6 0.7-0.3 0.6-0.4 0.5-0.4 0.8-0.8 0.3-0.5 0.2-0.4c0.1-0.4 0.1-0.7 0.1-1.1l-0.1-0.7-0.2-0.6-0.3-0.6-0.5-0.5-0.7-0.5c-0.4-0.3-0.9-0.5-1.3-0.7-1.5-0.5-3.1-1-4.6-1.4-2.7-0.8-5.5-1.4-8.1-2.4-1.8-0.7-3.7-1.6-4.7-3.4l-0.6-0.8-0.6-0.9-0.4-1-0.3-1-0.2-1v-1.1l0.1-1.1 0.3-1 0.4-1 0.6-1 0.8-0.9 0.9-0.9 1.1-0.8 1.2-0.8 1.4-0.7 1.6-0.7 1.8-0.4 1.7-0.2c0.9-0.1 1.7-0.1 2.6-0.1s1.7 0.1 2.6 0.1c0.9 0.1 1.7 0.2 2.6 0.3 1 0.2 3.1 0.5 3.1 0.5zm-62.6-6.5 1.5 0.1 2.8 0.4 2.5 0.7 1.1 0.5 1 0.5 0.9 0.6 0.8 0.7 0.7 0.8 0.6 0.9 0.5 0.9 0.3 1 0.2 1.1 0.1 1.2-0.1 1.3-0.2 1.1-0.4 1.1-0.5 1-0.6 0.9-0.8 0.8-0.9 0.7-1 0.6-1.1 0.6-1.2 0.4-1.3 0.4-1.3 0.2-1.5 0.2-3.2 0.2h-2.9v-2.9l2.3-0.2 1.2-0.2 1-0.3 0.9-0.3 0.8-0.3 0.7-0.4 0.6-0.4 0.5-0.4 0.4-0.4 0.3-0.5 0.4-1 0.1-0.5v-1l0.1-0.6-0.1-0.5-0.3-0.6-0.2-0.5-0.6-1-0.8-1-1-0.8-0.5-0.3-0.6-0.3-1.2-0.4-0.6-0.1-0.7-0.1h-5.6v25.3c0.2 2.6 1.5 2.5 3.5 2.5v3.1h-14.7v-3.1c2.2 0 3.2-0.1 3.4-2.7v-23.2c-0.1-2.5-1-2.7-3.1-2.7v-3.2h16.2m44.2-34.6c2.1-2.3 4.3-2 4.8 1.4 1.9-0.6 3.7-1 5.7-1.3-4.3 3.3-8.2 7.1-11.2 11.7-3.5-4-12.6-9.3-17.6-8.1 1.5-5.3 1.8-10.7 1.5-16.1 1.1 1.7 2 3.3 2.7 5.2 2.9-1.9 4.6-0.3 4.2 2.7 2.7-2.5 5.4-5.2 8.9-6.4 1.6 3.4 1.2 7.2 1 10.9m-13.1-9.9c-0.9-1.9-2.1-3.7-3.4-5.4l-2.8-3.5c0.2 2.7 0.5 5.5 0.6 8.2 0.1 5.4-0.7 10.9-2.2 16 7.4-2.1 16.4 4.5 20.7 9.1 2.9-4.5 6.3-8.3 10.5-11.7 2.1-1.7 4.4-3.3 6.6-4.9l-4.5 0.2c-2.1 0.1-4.2 0.4-6.2 0.9-0.8-1.4-2.7-2.3-4.3-2.2v-0.2c0.3-2.3-0.6-7.7-2-9.6-2.4 0.3-6.9 3.2-8.4 5.1-0.6-1.3-3.2-2.3-4.6-2z" fill="#263778"/></g></svg>
